<svg width="48" height="48" viewBox="0 0 48 48" fill="none" xmlns="http://www.w3.org/2000/svg">
<path d="M22.117 28.2641C23.319 28.2641 25.3046 28.1586 25.7401 30.3125C25.862 30.966 25.7927 32.396 25.7927 33.1375C25.7928 34.1436 25.9316 35.0264 24.7301 34.9736C24.7475 34.2144 24.8689 31.7247 24.6076 31.248C23.7543 31.0187 24.0682 32.5369 24.0682 33.2431C24.0682 34.6204 24.1722 40.9058 24.0328 41.3825C23.8063 42.1769 22.674 42.1417 22.4824 41.2943C22.3082 40.5881 22.5698 36.7749 22.448 35.8034C22.3783 35.3091 22.0119 35.2739 21.8377 35.627C21.6813 35.9297 21.7688 39.1742 21.7689 39.6695C21.7689 40.4111 21.9945 41.7007 21.2629 41.9303C20.0091 42.3182 20.2002 40.7468 20.2002 40.3937V32.2369C20.2002 31.8484 20.3048 31.2485 19.8693 31.2132C19.3819 31.1605 19.5211 31.8662 19.5211 32.2369C19.5384 33.1481 19.5214 34.0767 19.5211 35.0054C18.4075 34.8809 18.4939 34.6125 18.4939 33.1375C18.4939 32.343 18.4062 31.0539 18.5455 30.33C18.8939 28.4584 20.2008 28.2641 22.117 28.2641Z" fill="#ED3237"/>
<path d="M14.8536 26.746C17.0833 26.6754 17.8149 26.5517 18.8775 27.664C19.1561 27.9641 19.0514 27.7879 19.2256 28.2292C18.4594 28.6178 17.8149 29.6238 17.8148 31.0183L17.8321 31.0716V37.498C17.8321 38.4513 18.111 39.9344 17.2926 40.3937C15.812 40.6409 16.2118 38.6104 16.2118 37.4098V35.3623C16.2118 34.6561 16.421 33.8965 15.7068 33.9848C15.1671 34.7093 15.8816 39.0875 15.3242 40.288C14.0745 40.5815 13.9574 40.172 13.9479 39.1782V30.3474C13.9479 29.9238 13.9472 29.9061 13.6685 29.6766C13.0942 29.9239 13.3031 30.6477 13.3032 31.3537V33.5252C12.7806 33.4546 12.5366 33.455 12.3276 32.9959C12.1012 32.5014 12.1714 29.0939 12.363 28.5113C12.4153 28.3525 12.519 28.1581 12.5887 28.0169C13.059 27.1694 13.8607 26.7813 14.8536 26.746Z" fill="#ED3237"/>
<path d="M27.4646 26.746C28.893 26.746 30.3742 26.5336 31.28 27.4517C32.3425 28.511 32.0633 30.524 32.0633 32.3425C32.0633 33.0663 31.8024 33.5606 31.0361 33.4196C31.0361 32.7131 31.3318 29.818 30.7396 29.6591C30.1301 29.5003 30.3387 30.6649 30.3388 31.1065V39.2818C30.3213 40.0408 30.0602 40.4465 29.259 40.3229C28.2139 39.9696 28.928 35.9794 28.6841 33.9314C28.179 33.8432 28.0395 34.0376 28.0395 34.5848C28.0395 35.5382 28.1262 39.4219 27.8998 40.1639H27.9352C26.0714 41.0114 26.5062 39.0874 26.5062 36.1214C26.5062 34.3735 26.7505 30.6833 26.1409 29.4119C25.8274 28.7588 25.4266 28.5822 25.0782 28.0528C25.5137 27.5408 25.8273 26.746 27.4646 26.746Z" fill="#ED3237"/>
<path d="M19.5383 35.0085L19.5211 35.0259C19.5211 35.0191 19.5211 35.0122 19.5211 35.0054C19.5269 35.006 19.5325 35.0078 19.5383 35.0085Z" fill="#ED3237"/>
<path d="M36.4879 29.5884C36.3138 27.7698 38.8923 27.6466 38.9968 29.3063C39.1009 31.0008 36.6447 31.1773 36.4879 29.5884Z" fill="#ED3237"/>
<path d="M20.0444 25.633C19.8356 23.1615 21.9784 22.1555 23.459 23.3384C23.8246 23.621 24.1206 24.1509 24.2251 24.8217C24.4688 26.2869 23.685 27.3637 22.5006 27.5933C21.1593 27.8581 20.1489 26.7985 20.0444 25.6156V25.633Z" fill="#ED3237"/>
<path d="M36.5406 25.8279C36.1748 24.3448 37.9862 23.6739 38.7701 24.7509L38.9614 25.2453C39.0832 26.0573 38.7347 26.5697 38.0728 26.7285C37.533 26.8696 37.0627 26.6924 36.7318 26.2864H36.7491L36.5406 25.8279Z" fill="#ED3237"/>
<path d="M27.7257 21.3956C29.8335 20.6717 31.0705 23.038 30.2518 24.8565C30.0428 25.3332 30.0429 25.1924 29.7468 25.4925C28.9803 26.2515 27.9172 26.2511 27.2379 25.7038C26.7678 25.3155 26.5245 25.0503 26.3504 24.3796C26.0195 23.1261 26.5414 21.8018 27.7257 21.3956Z" fill="#ED3237"/>
<path d="M13.791 24.08C13.4078 20.7254 17.5536 20.3366 17.9717 23.2851C18.442 26.5336 14.1397 27.1518 13.791 24.08Z" fill="#ED3237"/>
<path d="M27.83 6.35289V11.1555C28.5616 10.7847 28.928 9.95464 29.5899 9.51325C29.8859 9.65445 30.4427 10.2193 30.6171 10.6077C30.4606 10.8192 27.1285 14.1972 27.0294 14.2625L23.458 10.6262L24.5206 9.53068C24.8864 9.91911 25.7924 10.9789 26.2279 11.1555H26.2451L26.2279 6.31801L27.83 6.35289Z" fill="#ED3237"/>
<path d="M17.1176 6.00002C17.5179 6.12353 17.4482 6.10616 17.7268 6.40622L20.8621 9.54915C20.6355 9.99044 20.0615 10.5028 19.7306 10.7852C19.3474 10.4321 18.441 9.33673 18.0577 9.17782L18.0233 13.9804L16.4203 13.9979L16.4031 9.16038C15.8456 9.63709 15.3406 10.2908 14.7484 10.7852C14.4375 10.5226 13.836 9.9818 13.622 9.57684L17.1176 6.00002Z" fill="#ED3237"/>
<path d="M13.622 9.57684L13.6159 9.58402V9.56658C13.6177 9.57009 13.6201 9.57331 13.622 9.57684Z" fill="#ED3237"/>
<path fill-rule="evenodd" clip-rule="evenodd" d="M35.1996 41.9651H33.632V16.79C33.626 16.7839 33.6203 16.7771 33.6138 16.7705L10.6203 16.752C10.4809 22.6313 10.6203 29.535 10.6203 35.6085C10.6203 37.1974 10.4463 40.6226 10.6901 42H9.01721L9 41.9826C9.00598 41.9467 9.01186 41.8962 9.01721 41.8318V15.2318C9.01122 15.1844 9.00662 15.1374 9 15.0923C9.03058 15.098 9.07466 15.0996 9.13056 15.1047C11.9903 14.9561 18.8684 15.1108 22.0998 15.1108H26.7511C29.0672 15.0944 31.6305 15.0838 33.3688 15.1108H34.3799C34.7283 15.1108 34.9381 15.058 35.2168 15.1816L35.1996 41.9651ZM35.0428 15.1806L35.0944 41.841L33.7534 41.8236V41.8421L35.1126 41.8595L35.06 15.1816L35.0428 15.1806Z" fill="#ED3237"/>
</svg>
